<svg width="243" height="281" viewBox="0 0 243 281" fill="none" xmlns="http://www.w3.org/2000/svg">
<path d="M126.761 274.59C186.908 255.091 237.513 221.471 237.513 154.234V60.1004C237.513 56.5339 235.99 53.1134 233.279 50.5915L121.845 6.30396V275.298C123.503 275.328 125.167 275.092 126.761 274.59Z" fill="url(#paint0_linear_112_496)" stroke="white" stroke-width="2.68997" stroke-linecap="round" stroke-linejoin="round"/>
<path d="M116.929 274.59C56.7811 255.091 6.17603 221.471 6.17603 154.234V60.1004C6.17603 56.5339 7.69933 53.1134 10.4108 50.5915L121.845 6.30396V140.801V275.298C120.186 275.328 118.523 275.092 116.929 274.59Z" fill="url(#paint1_linear_112_496)" stroke="white" stroke-width="2.68997" stroke-linecap="round" stroke-linejoin="round"/>
<path d="M152.48 89.1583C153.921 85.8114 152.846 81.9027 149.89 79.7529C146.934 77.6031 142.903 77.7985 140.143 80.1926L77.6031 134.915C75.1602 137.065 74.2807 140.509 75.4289 143.538C76.5771 146.568 79.5086 148.62 82.7578 148.62H109.997L91.2104 192.446C89.769 195.793 90.8439 199.702 93.7999 201.852C96.7559 204.001 100.787 203.806 103.547 201.412L166.087 146.69C168.53 144.54 169.409 141.095 168.261 138.066C167.113 135.037 164.206 133.009 160.932 133.009H133.693L152.48 89.1583Z" fill="#F68B37"/>
<path d="M121.845 6.30396L10.4108 50.5915C7.69933 53.1134 6.17604 56.5339 6.17604 60.1004V154.234C6.17604 221.471 56.7811 255.091 116.929 274.59C118.523 275.092 120.186 275.328 121.845 275.298" stroke="white" stroke-width="10.7599" stroke-linecap="round" stroke-linejoin="round"/>
<path d="M121.845 6.30396L233.279 50.5915C235.99 53.1134 237.513 56.5339 237.513 60.1004V154.234C237.513 221.471 186.908 255.091 126.761 274.59C125.167 275.092 123.503 275.328 121.845 275.298" stroke="white" stroke-width="10.7599" stroke-linecap="round" stroke-linejoin="round"/>
<defs>
<linearGradient id="paint0_linear_112_496" x1="179.679" y1="6.30396" x2="179.679" y2="275.301" gradientUnits="userSpaceOnUse">
<stop stop-color="#0A1C32"/>
<stop offset="1" stop-color="#8AA5FF"/>
</linearGradient>
<linearGradient id="paint1_linear_112_496" x1="64.0104" y1="6.30396" x2="64.0104" y2="275.301" gradientUnits="userSpaceOnUse">
<stop stop-color="#8AA5FF"/>
<stop offset="1" stop-color="#0A1C32"/>
</linearGradient>
</defs>
</svg>
